<svg width="183" height="381" viewBox="0 0 183 381" fill="none" xmlns="http://www.w3.org/2000/svg">
<mask id="path-1-inside-1_211_96" fill="white">
<path d="M190.044 0.0218347C165.093 0.0189673 140.385 4.93062 117.332 14.4764C94.2792 24.0221 73.3321 38.015 55.687 55.6561C38.0418 73.2972 24.0441 94.241 14.4931 117.292C4.94203 140.343 0.0247009 165.049 0.0218347 190C0.0189684 214.951 4.93063 239.659 14.4764 262.712C24.0221 285.764 38.015 306.712 55.6561 324.357C73.2972 342.002 94.2411 356 117.292 365.551C140.343 375.102 165.049 380.019 190 380.022L190.022 190.022L190.044 0.0218347Z"/>
</mask>
<path d="M190.044 0.0218347C165.093 0.0189673 140.385 4.93062 117.332 14.4764C94.2792 24.0221 73.3321 38.015 55.687 55.6561C38.0418 73.2972 24.0441 94.241 14.4931 117.292C4.94203 140.343 0.0247009 165.049 0.0218347 190C0.0189684 214.951 4.93063 239.659 14.4764 262.712C24.0221 285.764 38.015 306.712 55.6561 324.357C73.2972 342.002 94.2411 356 117.292 365.551C140.343 375.102 165.049 380.019 190 380.022L190.022 190.022L190.044 0.0218347Z" stroke="#514A7E" stroke-width="2" mask="url(#path-1-inside-1_211_96)"/>
</svg>
