<svg width="221" height="389" viewBox="0 0 221 389" fill="none" xmlns="http://www.w3.org/2000/svg">
<mask id="path-1-inside-1_88_3036" fill="white">
<path d="M340.973 11.7809C307.695 1.82924 272.782 -1.47029 238.228 2.0707C203.675 5.61169 170.157 15.9239 139.588 32.4184C109.02 48.913 81.9999 71.2669 60.0706 98.2039C38.1413 125.141 21.7324 156.133 11.7807 189.412C1.82907 222.69 -1.47046 257.603 2.07053 292.157C5.61152 326.711 15.9237 360.228 32.4183 390.797C48.9128 421.365 71.2668 448.385 98.2038 470.315C125.141 492.244 156.133 508.653 189.412 518.604L265.193 265.193L340.973 11.7809Z"/>
</mask>
<path d="M340.973 11.7809C307.695 1.82924 272.782 -1.47029 238.228 2.0707C203.675 5.61169 170.157 15.9239 139.588 32.4184C109.02 48.913 81.9999 71.2669 60.0706 98.2039C38.1413 125.141 21.7324 156.133 11.7807 189.412C1.82907 222.69 -1.47046 257.603 2.07053 292.157C5.61152 326.711 15.9237 360.228 32.4183 390.797C48.9128 421.365 71.2668 448.385 98.2038 470.315C125.141 492.244 156.133 508.653 189.412 518.604L265.193 265.193L340.973 11.7809Z" stroke="#514A7E" stroke-width="2" mask="url(#path-1-inside-1_88_3036)"/>
</svg>
