<svg width="172" height="381" viewBox="0 0 172 381" fill="none" xmlns="http://www.w3.org/2000/svg">
<mask id="path-1-inside-1_59_54" fill="white">
<path d="M183.044 0.0210302C159.012 0.0182685 135.215 4.93002 113.011 14.4759C90.8073 24.0217 70.6319 38.0147 53.6367 55.6559C36.6416 73.2971 23.1595 94.2409 13.9602 117.292C4.76097 140.343 0.024701 165.049 0.0218347 190C0.0189683 214.951 4.74957 239.659 13.9435 262.711C23.1375 285.764 36.6148 306.711 53.6059 324.356C70.597 342.002 90.7691 355.999 112.971 365.55C135.172 375.101 158.968 380.018 183 380.021L183.022 190.021L183.044 0.0210302Z"/>
</mask>
<path d="M183.044 0.0210302C159.012 0.0182685 135.215 4.93002 113.011 14.4759C90.8073 24.0217 70.6319 38.0147 53.6367 55.6559C36.6416 73.2971 23.1595 94.2409 13.9602 117.292C4.76097 140.343 0.024701 165.049 0.0218347 190C0.0189683 214.951 4.74957 239.659 13.9435 262.711C23.1375 285.764 36.6148 306.711 53.6059 324.356C70.597 342.002 90.7691 355.999 112.971 365.55C135.172 375.101 158.968 380.018 183 380.021L183.022 190.021L183.044 0.0210302Z" stroke="#514A7E" stroke-width="2" mask="url(#path-1-inside-1_59_54)"/>
</svg>
